<?xml version="1.0" encoding="utf-8"?>
<!-- Generator: Adobe Illustrator 24.1.2, SVG Export Plug-In . SVG Version: 6.00 Build 0)  -->
<svg version="1.1" id="Layer_1" xmlns="http://www.w3.org/2000/svg" xmlns:xlink="http://www.w3.org/1999/xlink" x="0px" y="0px"
	 viewBox="0 0 131.9 132.3" style="enable-background:new 0 0 131.9 132.3;" xml:space="preserve">
<style type="text/css">
	.st0{fill-rule:evenodd;clip-rule:evenodd;fill:url(#SVGID_1_);}
	.st1{fill-rule:evenodd;clip-rule:evenodd;fill:url(#SVGID_2_);}
</style>
<text transform="matrix(1 0 0 1 160.95 105.04)" style="display:none;fill:#010101;enable-background:new    ; font-family:'ArialMT'; font-size:114.69px;">Dilate</text>
<linearGradient id="SVGID_1_" gradientUnits="userSpaceOnUse" x1="2.0087" y1="288.8359" x2="125.9301" y2="423.8089" gradientTransform="matrix(1 0 0 -1 0 424.616)">
	<stop  offset="0" style="stop-color:#CED936"/>
	<stop  offset="1" style="stop-color:#58B648"/>
</linearGradient>
<path class="st0" d="M0,66.1c0,36.5,29.6,66.1,65.9,66.1s65.9-29.7,65.9-66.1C131.9,29.7,102.3,0,65.9,0S0,29.7,0,66.1z M5.3,66.1
	c0-33.6,27.2-60.8,60.7-60.8s60.7,27.3,60.7,60.8S99.4,127,65.9,127C32.5,127,5.3,99.7,5.3,66.1z"/>
<linearGradient id="SVGID_2_" gradientUnits="userSpaceOnUse" x1="26.5844" y1="319.0676" x2="106.9484" y2="401.2786" gradientTransform="matrix(1 0 0 -1 0 424.616)">
	<stop  offset="0" style="stop-color:#CED936"/>
	<stop  offset="1" style="stop-color:#58B648"/>
</linearGradient>
<path class="st1" d="M61.8,40c1.9,3.3,4.5,3,8.1,4.4c3.3,1.4,6,3.1,8.6,5.2c3.2,2.5,6.3,6.8,8.1,10.8c1,2.4,1.4,5.7,3,7.6
	c2.2,2.8,6.9,3,9.8,0.7c2.7-2.1,3.4-6.7,1.1-9.7c-1.4-1.8-3.5-2.2-5.9-3c-2.2-0.7-4.2-1.7-6-2.8c-4.1-2.5-7.4-5.8-10-9.8
	c-0.6-0.9-1.2-1.8-1.6-2.8c-0.6-1.2-1.1-2.5-1.6-3.9c-0.4-1.1-0.6-2.3-1-3.3c-1-2.4-3.3-3.8-6.8-3.8c-0.3,0-0.6,0.1-0.9,0.1L65,30.2
	c-2.3,1-4.9,4.1-4,7.8C61.2,38.7,61.4,39.4,61.8,40L61.8,40z M91.1,44.1c0.8,0.3,2,0.7,3.2,0.5c3.1-0.5,5-2,6-4.5
	c2-5-2.1-9.6-6.8-9.6c-0.2,0-0.5,0-0.7,0.1c-0.5,0.1-1.1,0.2-1.6,0.4c-2,0.8-3.4,2.2-4.2,4.2C85.4,39.3,88.2,43,91.1,44.1z
	 M90.6,84.7c-2.7-0.8-5-2-6.5-4c-3-4.2-2.3-10.8-3.8-16.4c-1.3-5.1-4-8.8-8-11.2c-2.3-1.4-5-2-8.1-2.6c-1.7-0.2-3.4-0.4-5.1-0.6
	c-3.9-0.7-6.4-1-9-3c-1.7-1.3-2.8-3.5-3.5-5.8c-0.5-1.7-0.5-3.8-1.1-5.4c-1-2.5-3.2-4.1-6.7-4c-0.3,0-0.6,0.1-1,0.1l-1.6,0.5
	c-2.6,1.2-5.1,5-3.6,8.8c0.6,1.6,1.7,3,3.4,3.6c1.5,0.6,3.6,0.6,5.3,1.1c2.4,0.7,4.7,1.7,6.1,3.5c0.9,1.2,1.7,2.5,2.2,4.1
	c1.2,3.7,1,8.6,2,12.6c1.3,5.1,3.7,8.8,7.6,11.3c2.4,1.5,5.2,2.2,8.6,2.9c1.4,0.2,2.7,0.3,4.1,0.5c1,0.1,2,0.3,3,0.4
	c2.5,0.5,4.7,1.1,6.4,2.3c1.9,1.4,3.2,3.5,3.9,5.9c0.6,1.8,0.6,4.2,1.3,5.9c1,2.5,4.6,4.8,8.3,3.5c1-0.3,1.8-0.8,2.5-1.4
	c2.6-2.1,3.1-6.6,0.9-9.5C96.4,85,93.9,85.6,90.6,84.7z M63.8,86.6c-2.4-0.7-4.5-1.8-6.4-3c-4.7-3-9.2-7.6-11.5-12.9
	c-0.5-1.1-1-2.3-1.4-3.5c-0.3-1.1-0.6-2.3-1-3.3c-1-2.3-3.2-3.9-6.6-3.8c-0.4,0-0.7,0.1-1.1,0.1c-0.7,0.2-1.4,0.4-2,0.7
	c-2.7,1.6-5,5.7-2.8,9.5c1.9,3.2,4.4,3,7.9,4.4c3.2,1.3,5.9,3,8.4,5c3.3,2.6,6.4,6.7,8.3,10.8c0.5,1.1,0.9,2.2,1.2,3.3
	c0.5,1.7,0.9,3.3,1.8,4.5c2.2,2.8,6.9,3.1,9.8,0.7c2.8-2.2,3.3-6.8,1-9.9C68.2,87.7,66.1,87.3,63.8,86.6L63.8,86.6z M41,86.3
	c-0.9-0.4-1.9-0.5-3.2-0.5c-0.3,0-0.5,0.1-0.8,0.1c-0.5,0.1-0.9,0.3-1.4,0.4c-1.8,0.8-3.1,2.2-3.8,4c-1.7,4.2,1.1,7.8,4,9
	c0.8,0.3,2.1,0.7,3.3,0.5c2.8-0.5,4.8-1.9,5.8-4.2C46.6,91.4,44,87.5,41,86.3z"/>
</svg>
