<?xml version="1.0" encoding="UTF-8"?>
<svg width="100pt" height="100pt" version="1.1" viewBox="0 0 100 100" xmlns="http://www.w3.org/2000/svg">
 <g>
  <path fill="#a689ff" d="m77.465 50.5h5.2305c0.66797 2.5859 3.0078 4.5 5.8047 4.5 3.3125 0 6-2.6875 6-6s-2.6875-6-6-6c-2.7969 0-5.1367 1.9141-5.8047 4.5h-5.2305c-0.375-6.5938-3.2031-12.527-7.5938-16.906l5.2812-5.9297c1.4922 0.88672 3.1719 1.3398 4.8477 1.3359 2.5391 0.003906 5.0859-1.0195 6.9531-3.0273 1.6992-1.8281 2.5469-4.1602 2.5469-6.4727 0.003906-2.5391-1.0195-5.0898-3.0273-6.9531-1.8242-1.6992-4.1562-2.5508-6.4688-2.5469-2.5391-0.003906-5.0898 1.0195-6.957 3.0273-1.6992 1.8242-2.5469 4.1562-2.5469 6.4727-0.003906 2.2305 0.78906 4.4688 2.3438 6.2461l-5.2188 5.8594c-4.4297-3.5039-10.023-5.6055-16.113-5.6055-6.1016 0-11.711 2.1094-16.145 5.6289l-5.7539-6.4648c1.1797-1.582 1.8867-3.5391 1.8867-5.6641 0-5.2461-4.2539-9.5-9.5-9.5s-9.5 4.2539-9.5 9.5 4.2539 9.5 9.5 9.5c2.0352 0 3.918-0.64453 5.4648-1.7383l5.6562 6.3555c-4.3711 4.375-7.1875 10.305-7.5625 16.883h-4.2031c-0.70312-3.6992-3.9492-6.5-7.8555-6.5-4.418 0-8 3.582-8 8s3.582 8 8 8c3.9062 0 7.1523-2.8008 7.8555-6.5h4.2031c0.375 6.5742 3.1875 12.496 7.5547 16.871l-7.7031 8.6523c-1.1562-0.64844-2.4883-1.0234-3.9102-1.0234-4.418 0-8 3.582-8 8s3.582 8 8 8 8-3.582 8-8c0-1.9141-0.67578-3.668-1.7969-5.0469l7.6484-8.5898c4.4414 3.5273 10.051 5.6367 16.16 5.6367 6.0977 0 11.695-2.1055 16.129-5.6133l3.8828 4.3633c-1.8711 2.0469-3.0234 4.7617-3.0234 7.7539 0 6.3477 5.1484 11.496 11.5 11.496s11.5-5.1484 11.5-11.5-5.1484-11.5-11.5-11.5c-2.2773 0-4.3945 0.67188-6.1836 1.8125l-3.9336-4.418c4.3828-4.375 7.207-10.305 7.582-16.895zm-2.2227-38.43c1.2812-1.3789 3.0117-2.0703 4.7617-2.0703 1.5898 0 3.1719 0.57422 4.4258 1.7422 1.3789 1.2852 2.0664 3.0117 2.0703 4.7617 0 1.5898-0.57422 3.1719-1.7422 4.4297-1.2812 1.3789-3.0117 2.0664-4.7578 2.0703-1.5898 0-3.1719-0.57422-4.4297-1.7422-1.3789-1.2852-2.0703-3.0117-2.0703-4.7617 0-1.5938 0.57422-3.1719 1.7422-4.4297zm10.77 63.418c1.5391 1.543 2.4883 3.6562 2.4883 6.0117 0 2.3516-0.94922 4.4688-2.4883 6.0117-1.543 1.5391-3.6602 2.4883-6.0117 2.4883s-4.4688-0.94922-6.0117-2.4883c-1.5391-1.543-2.4883-3.6562-2.4883-6.0117 0-2.3516 0.94922-4.4688 2.4883-6.0117 1.543-1.5391 3.6602-2.4883 6.0117-2.4883s4.4688 0.94922 6.0117 2.4883zm2.4883-29.488c1.6562 0.003906 2.9961 1.3438 3 3-0.003906 1.6562-1.3438 2.9961-3 3-1.6562-0.003906-2.9961-1.3438-3-3 0.003906-1.6562 1.3438-2.9961 3-3zm-71.098-24.902c-1.1758-1.1836-1.9023-2.7969-1.9023-4.5977s0.72656-3.4141 1.9023-4.5977c1.1836-1.1758 2.7969-1.9023 4.5977-1.9023s3.4141 0.72656 4.5977 1.9023c1.1797 1.1797 1.9023 2.7969 1.9023 4.5977s-0.72656 3.4141-1.9023 4.5977c-1.1836 1.1758-2.7969 1.9023-4.5977 1.9023s-3.4141-0.72656-4.5977-1.9023zm-0.36719 31.438c-0.91016 0.90625-2.1484 1.4648-3.5352 1.4648s-2.625-0.55859-3.5352-1.4648c-0.90625-0.91016-1.4648-2.1484-1.4648-3.5352s0.55859-2.625 1.4648-3.5352c0.91016-0.90625 2.1484-1.4648 3.5352-1.4648s2.625 0.55859 3.5352 1.4648c0.90625 0.91016 1.4648 2.1484 1.4648 3.5352s-0.55859 2.625-1.4648 3.5352zm8 34c-0.91016 0.90625-2.1484 1.4648-3.5352 1.4648s-2.625-0.55859-3.5352-1.4648c-0.90625-0.91016-1.4648-2.1484-1.4648-3.5352s0.55859-2.625 1.4648-3.5352c0.91016-0.90625 2.1484-1.4648 3.5352-1.4648s2.625 0.55859 3.5352 1.4648c0.90625 0.91016 1.4648 2.1484 1.4648 3.5352s-0.55859 2.625-1.4648 3.5352zm10.211-21.27c-4.1641-4.168-6.7344-9.9062-6.7344-16.266 0-6.3555 2.5703-12.098 6.7344-16.266 4.168-4.1641 9.9062-6.7344 16.266-6.7344 6.3555 0 12.098 2.5703 16.266 6.7344 4.1641 4.168 6.7344 9.9062 6.7344 16.266 0 6.3555-2.5703 12.098-6.7344 16.266-4.168 4.1641-9.9062 6.7344-16.266 6.7344-6.3555 0-12.098-2.5703-16.266-6.7344z"/>
  <path fill="#a689ff" d="m48.512 54c-3.3125 0-6 2.6875-6 6s2.6875 6 6 6 6-2.6875 6-6-2.6875-6-6-6zm0 9c-1.6562-0.003906-2.9961-1.3438-3-3 0.003906-1.6562 1.3438-2.9961 3-3 1.6562 0.003906 2.9961 1.3438 3 3-0.003907 1.6562-1.3438 2.9961-3 3z"/>
  <path fill="#a689ff" d="m46.512 44c0-2.7617-2.2383-5-5-5s-5 2.2383-5 5 2.2383 5 5 5 5-2.2383 5-5zm-5 2c-1.1055-0.003906-1.9961-0.89453-2-2 0.003906-1.1055 0.89453-1.9961 2-2 1.1055 0.003906 1.9961 0.89453 2 2-0.003907 1.1055-0.89844 1.9961-2 2z"/>
  <path fill="#a689ff" d="m60.512 37c-4.4219 0-8 3.582-8 8s3.5781 8 8 8c4.418 0 7.9961-3.582 8-8 0-4.418-3.582-8-8-8zm3.5352 11.535c-0.91016 0.90625-2.1484 1.4648-3.5352 1.4648s-2.625-0.55859-3.5352-1.4648c-0.90625-0.91016-1.4648-2.1484-1.4648-3.5352s0.55859-2.625 1.4648-3.5352c0.91016-0.90625 2.1484-1.4648 3.5352-1.4648s2.625 0.55859 3.5352 1.4648c0.90625 0.91016 1.4648 2.1484 1.4648 3.5352s-0.55859 2.625-1.4648 3.5352z"/>
 </g>
</svg>
